<mxfile host="app.diagrams.net" modified="2023-05-17T14:16:03.425Z" agent="Mozilla/5.0 (Windows NT 10.0; Win64; x64) AppleWebKit/537.36 (KHTML, like Gecko) Chrome/110.0.0.0 YaBrowser/23.3.4.594 Yowser/2.5 Safari/537.36" etag="LSvuEEh21qFLT6VSxXpE" version="21.3.2" type="device">
  <diagram name="Страница 1" id="CnySUw97NGD7UjsQFjne">
    <mxGraphModel dx="1002" dy="553" grid="1" gridSize="10" guides="1" tooltips="1" connect="1" arrows="1" fold="1" page="1" pageScale="1" pageWidth="827" pageHeight="1169" math="0" shadow="0">
      <root>
        <mxCell id="0" />
        <mxCell id="1" parent="0" />
        <mxCell id="lH9q_32WFQsvoyFA_l9H-31" value="" style="rounded=0;whiteSpace=wrap;html=1;opacity=0;" parent="1" vertex="1">
          <mxGeometry x="50" y="190" width="950" height="490" as="geometry" />
        </mxCell>
        <mxCell id="lH9q_32WFQsvoyFA_l9H-2" value="&lt;font style=&quot;font-size: 14px;&quot;&gt;TextDoc&lt;/font&gt;" style="swimlane;fontStyle=0;childLayout=stackLayout;horizontal=1;startSize=26;fillColor=none;horizontalStack=0;resizeParent=1;resizeParentMax=0;resizeLast=0;collapsible=1;marginBottom=0;whiteSpace=wrap;html=1;" parent="1" vertex="1">
          <mxGeometry x="660" y="215" width="290" height="410" as="geometry">
            <mxRectangle x="660" y="250" width="80" height="30" as="alternateBounds" />
          </mxGeometry>
        </mxCell>
        <mxCell id="lH9q_32WFQsvoyFA_l9H-12" value="&lt;font style=&quot;font-size: 14px;&quot;&gt;&amp;nbsp; - string name;&lt;br&gt;&amp;nbsp; - string author;&lt;br&gt;&amp;nbsp; - string type;&lt;br&gt;&amp;nbsp; - int pages;&lt;br&gt;&lt;br&gt;&lt;br&gt;&amp;nbsp; &amp;nbsp;+ TextDocuments();&amp;nbsp;&lt;br&gt;&amp;nbsp; &amp;nbsp;+ TextDocuments(string name, author, type, int pages);&amp;nbsp; &amp;nbsp; &amp;nbsp; &amp;nbsp; &amp;nbsp; &amp;nbsp; &amp;nbsp; &amp;nbsp; &amp;nbsp; &amp;nbsp; &amp;nbsp; &amp;nbsp; &amp;nbsp;&lt;br&gt;&lt;br&gt;&lt;br&gt;&amp;nbsp; + void set_name(string name1);&lt;br&gt;&amp;nbsp; + void set_author(string author1);&lt;br&gt;&amp;nbsp; + void set_type(string type1);&lt;br&gt;&amp;nbsp; + void set_pages(int pages1);&lt;br&gt;&amp;nbsp;&amp;nbsp;&lt;br&gt;&amp;nbsp; + string get_name(return name);&lt;br&gt;&amp;nbsp; + string get_author(return author);&lt;br&gt;&amp;nbsp; + string get_type(return type);&lt;br&gt;&amp;nbsp; + int get_pages(return pages);&lt;br&gt;&amp;nbsp;&amp;nbsp;&lt;br&gt;&amp;nbsp; + const string toString();&lt;/font&gt;" style="text;whiteSpace=wrap;html=1;" parent="lH9q_32WFQsvoyFA_l9H-2" vertex="1">
          <mxGeometry y="26" width="290" height="384" as="geometry" />
        </mxCell>
        <mxCell id="lH9q_32WFQsvoyFA_l9H-28" style="edgeStyle=orthogonalEdgeStyle;rounded=0;orthogonalLoop=1;jettySize=auto;html=1;entryX=0.5;entryY=1;entryDx=0;entryDy=0;endArrow=block;endFill=0;" parent="1" source="lH9q_32WFQsvoyFA_l9H-17" target="lH9q_32WFQsvoyFA_l9H-21" edge="1">
          <mxGeometry relative="1" as="geometry" />
        </mxCell>
        <mxCell id="lH9q_32WFQsvoyFA_l9H-17" value="&lt;font style=&quot;font-size: 14px;&quot;&gt;Stage&lt;/font&gt;" style="swimlane;fontStyle=0;childLayout=stackLayout;horizontal=1;startSize=30;horizontalStack=0;resizeParent=1;resizeParentMax=0;resizeLast=0;collapsible=1;marginBottom=0;whiteSpace=wrap;html=1;" parent="1" vertex="1">
          <mxGeometry x="140" y="425" width="140" height="40" as="geometry">
            <mxRectangle x="140" y="425" width="70" height="30" as="alternateBounds" />
          </mxGeometry>
        </mxCell>
        <mxCell id="lH9q_32WFQsvoyFA_l9H-21" value="&lt;font style=&quot;font-size: 14px;&quot;&gt;Window&lt;/font&gt;" style="swimlane;fontStyle=0;childLayout=stackLayout;horizontal=1;startSize=30;horizontalStack=0;resizeParent=1;resizeParentMax=0;resizeLast=0;collapsible=1;marginBottom=0;whiteSpace=wrap;html=1;" parent="1" vertex="1">
          <mxGeometry x="140" y="280" width="140" height="40" as="geometry">
            <mxRectangle x="140" y="280" width="70" height="30" as="alternateBounds" />
          </mxGeometry>
        </mxCell>
        <mxCell id="lH9q_32WFQsvoyFA_l9H-27" style="edgeStyle=orthogonalEdgeStyle;rounded=0;orthogonalLoop=1;jettySize=auto;html=1;exitX=0.5;exitY=0;exitDx=0;exitDy=0;entryX=0.5;entryY=1;entryDx=0;entryDy=0;dashed=1;endArrow=block;endFill=0;" parent="1" source="lH9q_32WFQsvoyFA_l9H-22" target="lH9q_32WFQsvoyFA_l9H-17" edge="1">
          <mxGeometry relative="1" as="geometry" />
        </mxCell>
        <mxCell id="lH9q_32WFQsvoyFA_l9H-22" value="&lt;font style=&quot;font-size: 14px;&quot;&gt;Application&lt;/font&gt;" style="swimlane;fontStyle=0;childLayout=stackLayout;horizontal=1;startSize=30;horizontalStack=0;resizeParent=1;resizeParentMax=0;resizeLast=0;collapsible=1;marginBottom=0;whiteSpace=wrap;html=1;" parent="1" vertex="1">
          <mxGeometry x="140" y="585" width="140" height="40" as="geometry">
            <mxRectangle x="140" y="585" width="70" height="30" as="alternateBounds" />
          </mxGeometry>
        </mxCell>
        <mxCell id="S2nczQWMd_CoNv-GX7DG-3" style="edgeStyle=orthogonalEdgeStyle;rounded=0;orthogonalLoop=1;jettySize=auto;html=1;exitX=0;exitY=0.5;exitDx=0;exitDy=0;entryX=1;entryY=0.5;entryDx=0;entryDy=0;endArrow=diamondThin;endFill=0;" parent="1" source="S2nczQWMd_CoNv-GX7DG-1" target="lH9q_32WFQsvoyFA_l9H-17" edge="1">
          <mxGeometry relative="1" as="geometry" />
        </mxCell>
        <mxCell id="S2nczQWMd_CoNv-GX7DG-1" value="&lt;span style=&quot;font-size: 14px;&quot;&gt;MainView&lt;/span&gt;" style="swimlane;fontStyle=0;childLayout=stackLayout;horizontal=1;startSize=30;horizontalStack=0;resizeParent=1;resizeParentMax=0;resizeLast=0;collapsible=1;marginBottom=0;whiteSpace=wrap;html=1;" parent="1" vertex="1">
          <mxGeometry x="380" y="425" width="140" height="40" as="geometry">
            <mxRectangle x="380" y="425" width="70" height="30" as="alternateBounds" />
          </mxGeometry>
        </mxCell>
        <mxCell id="S2nczQWMd_CoNv-GX7DG-2" style="edgeStyle=orthogonalEdgeStyle;rounded=0;orthogonalLoop=1;jettySize=auto;html=1;exitX=0;exitY=0.5;exitDx=0;exitDy=0;endArrow=diamondThin;endFill=1;" parent="1" source="lH9q_32WFQsvoyFA_l9H-12" target="S2nczQWMd_CoNv-GX7DG-1" edge="1">
          <mxGeometry relative="1" as="geometry" />
        </mxCell>
      </root>
    </mxGraphModel>
  </diagram>
</mxfile>
